<?xml version="1.0" encoding="UTF-8" standalone="no"?>
<svg
   xmlns:dc="http://purl.org/dc/elements/1.1/"
   xmlns:cc="http://creativecommons.org/ns#"
   xmlns:rdf="http://www.w3.org/1999/02/22-rdf-syntax-ns#"
   xmlns:svg="http://www.w3.org/2000/svg"
   xmlns="http://www.w3.org/2000/svg"
   xmlns:sodipodi="http://sodipodi.sourceforge.net/DTD/sodipodi-0.dtd"
   xmlns:inkscape="http://www.inkscape.org/namespaces/inkscape"
   sodipodi:docname="persons.svg"
   inkscape:version="1.0 (4035a4fb49, 2020-05-01)"
   id="svg8"
   version="1.1"
   viewBox="0 0 20 20"
   height="20mm"
   width="20mm">
  <defs
     id="defs2" />
  <sodipodi:namedview
     inkscape:window-maximized="1"
     inkscape:window-y="-8"
     inkscape:window-x="-8"
     inkscape:window-height="715"
     inkscape:window-width="1366"
     showgrid="false"
     inkscape:document-rotation="0"
     inkscape:current-layer="layer1"
     inkscape:document-units="mm"
     inkscape:cy="48.591959"
     inkscape:cx="30.22261"
     inkscape:zoom="2"
     inkscape:pageshadow="2"
     inkscape:pageopacity="0.0"
     borderopacity="1.0"
     bordercolor="#666666"
     pagecolor="#ffffff"
     id="base" />
  <metadata
     id="metadata5">
    <rdf:RDF>
      <cc:Work
         rdf:about="">
        <dc:format>image/svg+xml</dc:format>
        <dc:type
           rdf:resource="http://purl.org/dc/dcmitype/StillImage" />
        <dc:title></dc:title>
      </cc:Work>
    </rdf:RDF>
  </metadata>
  <g
     id="layer1"
     inkscape:groupmode="layer"
     inkscape:label="Layer 1">
    <path
       id="path847"
       d="M 9.4187998,14.228106 C 8.1468516,14.101608 7.1228806,13.892272 6.3724404,13.605318 5.9217299,13.432972 5.8831213,13.326034 5.9643696,12.475034 6.0500421,11.577644 6.234263,10.783062 6.4672189,10.306075 6.67202,9.886739 6.8243283,9.779266 7.609659,9.4999232 8.0722666,9.3353792 8.4407982,9.1495753 8.612159,8.9945017 L 8.7497892,8.8699385 8.8587139,9.0861509 c 0.2084237,0.4137134 0.4735764,0.7252142 0.7413728,0.8709681 0.093664,0.050976 0.1603829,0.067841 0.3006721,0.075953 0.1646452,0.0095 0.1937982,0.0041 0.3359062,-0.062385 0.27727,-0.1297428 0.589031,-0.4805683 0.863971,-0.972204 l 0.08629,-0.1543258 0.04307,0.070826 c 0.0885,0.1455374 0.338193,0.2885522 0.779943,0.4467487 0.561783,0.2011844 0.958391,0.3996937 1.230235,0.615753 0.156364,0.1242711 0.236784,0.2756561 0.391642,0.7371691 0.305276,0.909771 0.450272,1.867932 0.381806,2.522993 -0.01449,0.138527 -0.02319,0.156222 -0.126585,0.256933 -0.09945,0.09686 -0.144728,0.119282 -0.433814,0.214848 -0.558729,0.184682 -1.02117,0.295812 -1.671623,0.401716 -0.774471,0.1261 -1.773612,0.175546 -2.3628104,0.116951 z M 5.2519409,14.017033 C 3.1191245,13.860551 1.5200047,13.416274 0.83198667,12.78908 0.6947517,12.66398 0.67786938,12.601269 0.67712707,12.213586 0.67592042,11.59351 0.79528719,10.943139 1.0486245,10.189433 1.1837016,9.7875555 1.2471871,9.6744324 1.4122953,9.5413817 1.6335714,9.3630661 2.0823123,9.1458502 2.6141017,8.9596339 2.8618391,8.872891 3.1031099,8.7327697 3.1934278,8.6231991 l 0.069047,-0.083774 0.1304834,0.2217135 C 3.7136911,9.3061115 4.0298319,9.5862967 4.3521439,9.6112372 4.703467,9.6384259 5.0686724,9.33694 5.3625502,8.7771425 c 0.050542,-0.096291 0.096391,-0.1886632 0.1018637,-0.205267 0.00638,-0.019114 0.052581,0.010896 0.1263397,0.081701 0.1210942,0.1164352 0.4442217,0.2883745 0.781678,0.4159617 0.096291,0.036404 0.1830906,0.072831 0.1928786,0.080943 0.00985,0.00812 -0.068998,0.049802 -0.1750771,0.092646 C 6.004907,9.398747 5.6524532,9.595666 5.4929431,9.7444528 L 5.3412238,9.8859671 5.2380456,10.246574 c -0.1809012,0.632216 -0.3411608,1.422059 -0.4075841,2.008783 -0.015189,0.134799 -0.027964,0.429201 -0.028223,0.654202 -3.92e-4,0.336998 0.00638,0.422368 0.038477,0.484414 0.075074,0.145192 0.6044723,0.474741 0.9697983,0.603712 l 0.1534099,0.05415 -0.1517376,-0.0022 c -0.083445,-0.0013 -0.3355647,-0.01587 -0.5602483,-0.03238 z m 8.9056381,-0.0092 c 0.342335,-0.121931 0.773616,-0.373062 0.946011,-0.550826 l 0.08112,-0.08364 0.0081,-0.389757 c 0.01588,-0.759959 -0.113261,-1.582735 -0.433213,-2.759149 L 14.673902,9.9093664 14.520509,9.7576315 C 14.352824,9.5917757 14.048744,9.4186922 13.626406,9.2487316 l -0.225775,-0.090851 0.226718,-0.088556 c 0.351311,-0.1372174 0.6821,-0.3144213 0.791888,-0.4242076 l 0.09853,-0.098532 0.120698,0.2308132 c 0.271275,0.5187376 0.635446,0.8401796 0.951865,0.8401796 0.343613,0 0.703312,-0.3092378 1.031815,-0.8870641 0.05474,-0.096291 0.102556,-0.1790225 0.10623,-0.1838449 0.0036,-0.00482 0.03587,0.025876 0.07152,0.068254 0.09299,0.1105293 0.305434,0.2407286 0.514763,0.3155071 0.793016,0.2832855 1.285998,0.5493001 1.434353,0.7739823 0.198271,0.3002768 0.493063,1.4020068 0.557655,2.0841308 0.03271,0.345499 0.01535,0.786056 -0.03477,0.883001 -0.0407,0.07872 -0.34986,0.317959 -0.569824,0.44097 -0.68146,0.381092 -1.822707,0.678308 -3.20229,0.833971 -0.322974,0.03644 -1.263374,0.107199 -1.388956,0.104488 -0.06168,-0.0013 -0.05612,-0.0064 0.0467,-0.04309 z M 9.7568551,9.1513188 C 9.1985318,9.0086111 8.6185425,8.3385226 8.4416924,7.6318593 c -0.02108,-0.084275 -0.03834,-0.1677545 -0.03834,-0.1854947 0,-0.017765 -0.028068,-0.072776 -0.062385,-0.1222839 C 8.2326621,7.1678048 8.1499573,6.6588646 8.2212715,6.5875524 c 0.015352,-0.015353 0.047124,-0.027998 0.070484,-0.027998 0.031882,0 0.0396,-0.013124 0.030967,-0.052529 C 8.2493045,6.1715706 8.2164552,5.5538877 8.2610079,5.3461968 8.3497004,4.9326519 8.7349603,4.4741028 9.2148681,4.2108898 9.3013671,4.1634506 9.4059313,4.0930052 9.4472519,4.0543216 c 0.063109,-0.059071 0.077439,-0.064266 0.089608,-0.032539 0.00793,0.020764 0.00793,0.048232 9.69e-5,0.06104 -0.016415,0.0265 0.066304,0.078528 0.088901,0.055929 0.00812,-0.00812 0.014678,-0.0026 0.014678,0.01245 0,0.052078 0.041204,0.026792 0.070118,-0.043018 0.016048,-0.038633 0.092544,-0.1252195 0.1700686,-0.1923859 0.082202,-0.071208 0.1296416,-0.1009479 0.1137921,-0.071345 -0.047507,0.088746 -0.029466,0.1066269 0.044642,0.044262 0.0868,-0.073036 0.114932,-0.076022 0.114932,-0.012266 0,0.026533 0.01176,0.071171 0.02605,0.099208 0.03601,0.070515 0.234623,0.2727521 0.267853,0.2727521 0.01505,0 0.04019,0.01572 0.05605,0.034767 0.01586,0.019114 0.03744,0.029431 0.04794,0.022941 0.01053,-0.00656 0.02569,-9.788e-4 0.03375,0.011898 0.0081,0.013124 0.03266,0.023746 0.05467,0.023746 0.06805,0 0.40368,0.1384418 0.547675,0.2259229 0.162229,0.09855 0.357584,0.2837931 0.444432,0.4214317 0.21449,0.3399353 0.255754,0.9218476 0.101555,1.4321095 -0.03104,0.1027121 -0.03016,0.1088572 0.02254,0.1558078 0.06674,0.059453 0.06996,0.1387525 0.01658,0.4079365 -0.03375,0.1702567 -0.0706,0.2680931 -0.14742,0.3914819 -0.0119,0.019277 -0.04899,0.133834 -0.08222,0.2546217 -0.108579,0.3947068 -0.322848,0.7603714 -0.617378,1.0536228 -0.208533,0.2076249 -0.386018,0.328923 -0.598049,0.408735 -0.169964,0.063975 -0.4401715,0.091284 -0.5713457,0.05776 z m 0.078492,-5.0943771 c 0.018991,-0.072535 0.00452,-0.076249 -0.027064,-0.00693 -0.014678,0.03216 -0.01756,0.058468 -0.00656,0.058468 0.011039,0 0.026185,-0.023194 0.033591,-0.051509 z M 4.2948544,8.7998198 C 3.9039196,8.718756 3.4346056,8.296867 3.1920263,7.8084297 3.1079763,7.6391911 3.0288121,7.4242306 2.9989556,7.2841164 2.9894702,7.2396843 2.9608587,7.1750895 2.9353442,7.1405823 2.8790696,7.0644559 2.8013037,6.7524249 2.8010441,6.601722 2.8009043,6.5181545 2.8120831,6.4843382 2.8479947,6.4591508 L 2.8951198,6.4261463 2.8474761,6.2302306 C 2.7446992,5.8076486 2.7670884,5.4067104 2.909899,5.1127909 2.9961754,4.9352195 3.2386654,4.6995463 3.4428279,4.5948563 3.5809099,4.5240471 3.8507378,4.4181909 3.9330463,4.4025359 4.0362245,4.3829518 4.2940999,4.1336346 4.2952308,4.0524333 c 1.864e-4,-0.014167 0.00967,-0.040293 0.020921,-0.058159 0.016906,-0.026741 0.033436,-0.023346 0.093026,0.019093 0.078214,0.055706 0.087417,0.049974 0.045501,-0.028327 -0.017805,-0.033283 0.014167,-0.015864 0.094304,0.051162 0.066682,0.055825 0.1368555,0.1316957 0.1559305,0.1685824 0.019073,0.036889 0.045538,0.067083 0.058816,0.067083 0.013308,0 0.016579,-0.012082 0.00742,-0.026964 -0.00985,-0.015864 -0.00638,-0.020651 0.00812,-0.01157 0.043347,0.026792 0.1015367,-0.010344 0.087157,-0.05562 -0.021193,-0.066737 0.024098,-0.07326 0.089263,-0.012756 0.032935,0.030519 0.1471789,0.1064735 0.2538812,0.1688073 0.1270839,0.074229 0.2671559,0.1857992 0.4060289,0.3234137 0.1743942,0.1728161 0.2300968,0.2466239 0.3139246,0.4159734 0.099846,0.20172 0.102107,0.2114623 0.1117723,0.4825232 0.00861,0.2422892 -0.011223,0.5240181 -0.05605,0.7939256 -0.011571,0.07 -0.0057,0.08505 0.040875,0.1050405 0.049267,0.021101 0.054308,0.037772 0.053133,0.1750771 -0.00173,0.1999762 -0.04718,0.3991014 -0.113377,0.4966728 -0.029433,0.043367 -0.070709,0.154986 -0.091716,0.2480281 C 5.7387198,7.97415 5.2668209,8.5771755 4.7873309,8.7632368 4.6610577,8.8122448 4.4351704,8.8290761 4.2947561,8.7999547 Z M 4.6297232,4.1891415 c -0.0076,-0.019809 -0.018828,-0.031003 -0.024952,-0.024903 -0.00605,0.00619 -0.00415,0.022319 0.00433,0.036026 0.023018,0.037234 0.036478,0.03 0.020674,-0.011039 z M 15.291688,8.7868092 C 15.032171,8.717035 14.744822,8.4979479 14.513653,8.1936005 14.36159,7.9933963 14.182157,7.6180599 14.134239,7.3999132 14.113092,7.303625 14.086165,7.2090771 14.074408,7.1898193 13.955023,6.9942239 13.904098,6.7983285 13.916664,6.5828818 c 0.0066,-0.1137736 0.01363,-0.1292568 0.06147,-0.1360438 0.04481,-0.00638 0.05192,-0.018235 0.04183,-0.070032 -0.06486,-0.3328819 -0.09168,-0.7390334 -0.06258,-0.9476855 0.05902,-0.4231152 0.38381,-0.8441518 0.857626,-1.111746 0.07495,-0.042329 0.171847,-0.1075938 0.21532,-0.1450182 0.05799,-0.049941 0.08384,-0.060298 0.09705,-0.038925 0.0099,0.016047 0.01257,0.043085 0.0062,0.060106 -0.0071,0.018664 0.01468,0.041049 0.05469,0.056326 0.05519,0.021033 0.07057,0.018644 0.08992,-0.013819 0.0507,-0.085187 0.110047,-0.1509261 0.202069,-0.2238079 0.07602,-0.06021 0.09064,-0.065789 0.06964,-0.026533 -0.04083,0.076263 -0.03221,0.083911 0.03492,0.031108 0.07823,-0.061541 0.09373,-0.060762 0.110374,0.00552 0.02196,0.087521 0.147764,0.2444276 0.245375,0.3060391 0.04987,0.031504 0.152357,0.077715 0.227723,0.1027448 0.574291,0.1906503 0.876893,0.4557129 1.004103,0.8795479 0.06147,0.204796 0.05608,0.6334141 -0.01139,0.9079527 l -0.05104,0.2076388 0.05018,0.035147 c 0.04592,0.03216 0.04897,0.049232 0.03601,0.2008757 -0.01658,0.1942175 -0.07294,0.3975529 -0.13389,0.483243 -0.02375,0.033401 -0.05365,0.1069376 -0.06644,0.1634043 -0.09187,0.4061074 -0.329807,0.8181864 -0.641895,1.1117172 -0.206968,0.1946681 -0.394004,0.3079225 -0.595268,0.3604636 -0.187215,0.04887 -0.301159,0.050267 -0.46684,0.0057 z m 0.122476,-4.63715 c 0.01294,-0.051027 0.01208,-0.051287 -0.02054,-0.0076 -0.03749,0.050183 -0.04528,0.092889 -0.01331,0.073142 0.01122,-0.00693 0.02653,-0.03649 0.03385,-0.065562 z"
       style="fill:#141b45;fill-opacity:1;stroke-width:0.0233437" />
  </g>
</svg>
